<svg id="Layer_1" data-name="Layer 1" xmlns="http://www.w3.org/2000/svg" xmlns:xlink="http://www.w3.org/1999/xlink" viewBox="0 0 287.88 348.01" width="406" height="306" class="illustration styles_illustrationTablet__1DWOa"><defs><linearGradient id="linear-gradient" x1="211.84" y1="38.46" x2="232.51" y2="18.49" gradientUnits="userSpaceOnUse"><stop offset="0.01"></stop><stop offset="0.83" stop-opacity="0.07"></stop><stop offset="1" stop-opacity="0"></stop></linearGradient><linearGradient id="linear-gradient-2" x1="191.57" y1="201.13" x2="236.03" y2="42.05" xlink:href="#linear-gradient"></linearGradient><linearGradient id="linear-gradient-3" x1="216.02" y1="113.86" x2="149.79" y2="99.73" xlink:href="#linear-gradient"></linearGradient><linearGradient id="linear-gradient-4" x1="247.03" y1="310.84" x2="146.3" y2="112.15" xlink:href="#linear-gradient"></linearGradient><linearGradient id="linear-gradient-5" x1="217.54" y1="40.2" x2="239.3" y2="56.64" xlink:href="#linear-gradient"></linearGradient><linearGradient id="linear-gradient-6" x1="290.17" y1="112.54" x2="208.55" y2="127.48" xlink:href="#linear-gradient"></linearGradient><linearGradient id="linear-gradient-7" x1="189.11" y1="167.72" x2="261.41" y2="115.53" xlink:href="#linear-gradient"></linearGradient><linearGradient id="linear-gradient-8" x1="4653.86" y1="328.51" x2="4657.53" y2="346.97" gradientTransform="matrix(-0.99, -0.12, -0.12, 0.99, 4830.13, 289.78)" xlink:href="#linear-gradient"></linearGradient><linearGradient id="linear-gradient-9" x1="201.96" y1="38.04" x2="232.88" y2="38.04" xlink:href="#linear-gradient"></linearGradient><linearGradient id="linear-gradient-10" x1="189.68" y1="95.01" x2="133.06" y2="128.7" xlink:href="#linear-gradient"></linearGradient><linearGradient id="linear-gradient-11" x1="226.51" y1="54" x2="217.13" y2="121.04" xlink:href="#linear-gradient"></linearGradient><linearGradient id="linear-gradient-12" x1="214.75" y1="52.36" x2="205.38" y2="119.4" xlink:href="#linear-gradient"></linearGradient><linearGradient id="linear-gradient-13" x1="125.62" y1="63.4" x2="129.67" y2="83.78" xlink:href="#linear-gradient"></linearGradient><linearGradient id="linear-gradient-14" x1="186.33" y1="129.81" x2="121.03" y2="128.19" xlink:href="#linear-gradient"></linearGradient><linearGradient id="linear-gradient-15" x1="147.24" y1="148.81" x2="134.04" y2="252.67" xlink:href="#linear-gradient"></linearGradient><linearGradient id="linear-gradient-16" x1="-764.61" y1="-9.57" x2="-764.27" y2="8.51" gradientTransform="matrix(0.69, -0.07, 0.05, 0.92, 737.96, 119.42)" xlink:href="#linear-gradient"></linearGradient><linearGradient id="linear-gradient-17" x1="171.71" y1="150.48" x2="173.25" y2="149.37" xlink:href="#linear-gradient"></linearGradient><linearGradient id="linear-gradient-19" x1="132.5" y1="83.09" x2="127.99" y2="136.24" xlink:href="#linear-gradient"></linearGradient><linearGradient id="linear-gradient-20" x1="163.07" y1="85.87" x2="158.56" y2="139.02" xlink:href="#linear-gradient"></linearGradient><linearGradient id="linear-gradient-21" x1="232.01" y1="89.93" x2="228.66" y2="112.63" xlink:href="#linear-gradient"></linearGradient><linearGradient id="linear-gradient-22" x1="158.97" y1="185.28" x2="219.41" y2="177.99" xlink:href="#linear-gradient"></linearGradient><linearGradient id="linear-gradient-23" x1="147.63" y1="92.8" x2="146.13" y2="79.72" xlink:href="#linear-gradient"></linearGradient><linearGradient id="linear-gradient-24" x1="137.99" y1="113.03" x2="152.14" y2="113.03" xlink:href="#linear-gradient"></linearGradient><linearGradient id="linear-gradient-25" x1="234.92" y1="321.47" x2="263.36" y2="321.47" xlink:href="#linear-gradient"></linearGradient><linearGradient id="linear-gradient-26" x1="177.58" y1="324.87" x2="203.08" y2="324.87" xlink:href="#linear-gradient"></linearGradient></defs><title>Police</title><path d="M335.81,260.85c-.86,15.27,1.95,30.57,1.28,45.85s-38.87,24.3-51.51,33c-9.65,6.65-22,7.71-33.71,8.22a609.46,609.46,0,0,1-77-1.57c-13.14-1.1-26.4-2.68-38.7-7.39-23.39-9-41.29-28.61-54.06-50.16-5.2-8.77-9.76-18.13-12.24-28A64.76,64.76,0,0,1,68,249.6c-1.18-16,4.1-31.79,6.13-47.76,3.79-29.74-3.79-59.76-3.37-89.74.18-12.16,1.72-24.51,6.66-35.62,4.6-10.36,12-19.28,20.16-27.11,18.85-18,43.78-32.09,69.82-36,11.67-1.78,24-.58,36-1.89,15.19-1.66,30.74-2,45.65,1.83,12.66,3.27,24.42,9.41,35.36,16.56a203.18,203.18,0,0,1,49.28,45.49c5.3,6.83,10.24,14.17,12.63,22.49s2.09,17,.82,25.41c-6.85,45.55-8.67,91.48-11.31,137.47Z" transform="translate(-67.79 -1.69)" fill="#68e1fd" opacity="0.18" style="isolation: isolate;"></path><path d="M337.09,306.7c-.66,15.34-38.87,24.3-51.51,33-9.65,6.65-22,7.71-33.71,8.22a609.46,609.46,0,0,1-77-1.57c-13.14-1.1-26.4-2.68-38.7-7.39-23.39-9-41.29-28.61-54.06-50.16-5.2-8.77-9.76-18.13-12.24-28h266C335,276.12,337.76,291.42,337.09,306.7Z" transform="translate(-67.79 -1.69)" fill="#68e1fd" opacity="0.38" style="isolation: isolate;"></path><path d="M202.07,37.86s-5.32-3.93-3.63-6.47,8.27-5.91,12.66-8.61,8.44-2.53,12-.17,13.51,7.1,14.35,8.62-4.39,5.87-4.56,7.05S202.07,37.86,202.07,37.86Z" transform="translate(-67.79 -1.69)" fill="#68e1fd"></path><path d="M202.07,37.86s-5.32-3.93-3.63-6.47,8.27-5.91,12.66-8.61,8.44-2.53,12-.17,13.51,7.1,14.35,8.62-4.39,5.87-4.56,7.05S202.07,37.86,202.07,37.86Z" transform="translate(-67.79 -1.69)" fill="url(#linear-gradient)"></path><path d="M226.47,73.05s15.52,6.44,17.2,7.84c1.5,1.25-3.83,86.6-4.15,90.79s-23.13,4.86-33,3a108,108,0,0,1-19.25-5.89s-3.12-88.44-1.18-90,20.82-7.43,20.82-7.43Z" transform="translate(-67.79 -1.69)" fill="#68e1fd"></path><path d="M239.52,171.68c-.32,4.19-23.13,4.86-33,3a107.46,107.46,0,0,1-19.25-5.88s-1-27.55-1.49-52.17c-.41-19.49-.55-37.14.31-37.83,1.94-1.57,20.82-7.43,20.82-7.43L226.47,73s15.9,6.88,17.58,8.28C245.54,82.58,239.84,167.49,239.52,171.68Z" transform="translate(-67.79 -1.69)" fill="url(#linear-gradient-2)"></path><path d="M185.78,116.6a9.68,9.68,0,0,0-2,2.39c-1.41,2.46-6.4,11.86-8.34,13.42s-5.17,1.84-7.86-4.84,10.85-41.18,12.66-44.12,5.82-4.68,5.82-4.68C185.23,79.46,185.37,97.11,185.78,116.6Z" transform="translate(-67.79 -1.69)" fill="#68e1fd"></path><path d="M185.78,116.6a9.68,9.68,0,0,0-2,2.39c-1.41,2.46-6.4,11.86-8.34,13.42s-5.17,1.84-7.86-4.84,10.85-41.18,12.66-44.12,5.82-4.68,5.82-4.68C185.23,79.46,185.37,97.11,185.78,116.6Z" transform="translate(-67.79 -1.69)" fill="url(#linear-gradient-3)"></path><path d="M200.48,312.3s1.71,11.26.79,12.55-6.34.85-9.67.12-4.14-5.05-4.14-5.05l-.23-3.56Z" transform="translate(-67.79 -1.69)" fill="#f1dfce"></path><path d="M247.37,306.62s2.44,15.71,1.64,17.08-6.79-2-10.18-2.4-3.69-5.86-3.69-5.86l-.57-3.51Z" transform="translate(-67.79 -1.69)" fill="#f1dfce"></path><path d="M227.1,64.67s-1.26,9.13-.26,12.5-3.63,13.5-10.51,14.12-7.93-11.07-8.05-12.45,2.2-5.34,1.2-8.72S226,60.61,227.1,64.67Z" transform="translate(-67.79 -1.69)" fill="#f7ad7e"></path><path d="M209.48,70.12c.78,2.61-.57,6.82-1,7.83a8.7,8.7,0,0,0,5.89,2c4.13-.37,10-4.36,12.2-10.8,0-.11.07-.24.11-.36.19-2.3.44-4.11.44-4.11C226,60.61,208.49,66.75,209.48,70.12Z" transform="translate(-67.79 -1.69)" fill="#e9865d"></path><path d="M254.43,123.88" transform="translate(-67.79 -1.69)" fill="none" stroke="#000" stroke-miterlimit="10" stroke-width="0.6"></path><path d="M238.83,171.74l2.84,57.79,5.44,80.09S244,313.37,235,313.49L218.79,232l-7.59-41.42L204.66,231l-2.73,84.15s-6.35.13-14.6.88L182,233l5.29-64.24Z" transform="translate(-67.79 -1.69)" fill="#68e1fd"></path><path d="M238.83,171.74l2.84,57.79,5.44,80.09S244,313.37,235,313.49L218.79,232l-7.59-41.42L204.66,231l-2.73,84.15s-6.35.13-14.6.88L182,233l5.29-64.24Z" transform="translate(-67.79 -1.69)" fill="url(#linear-gradient-4)"></path><path d="M228.67,63c-2.19,6.44-8.06,10.43-12.19,10.8s-8.62-3.38-10.43-8.07S204,43.07,204,43.07a7.36,7.36,0,0,1,.69-3.48,10.14,10.14,0,0,1,2.93-3.8,36.52,36.52,0,0,1,19.92.44A9.73,9.73,0,0,1,230,39.34a5.64,5.64,0,0,1,.27,1.32C230.84,45,230.6,57.4,228.67,63Z" transform="translate(-67.79 -1.69)" fill="#f7ad7e"></path><path d="M201.18,43.57l.46.24-.59,1.49a1.18,1.18,0,0,0-.12.64,1.29,1.29,0,0,0,.36.54,13.08,13.08,0,0,1,3.06,5.5,56.36,56.36,0,0,0,.68-7.45,5.71,5.71,0,0,1,.37-2.33c.66-1.38,2.46-2.21,2.51-3.74,0-.19,0-.43-.24-.49a.5.5,0,0,0-.27,0c-1.48.31-3.84.67-5.06,1.62C201.85,40,200.84,43.39,201.18,43.57Z" transform="translate(-67.79 -1.69)" fill="#3f3d56"></path><path d="M203.81,47.88a2.06,2.06,0,0,0-2.72.44,3.06,3.06,0,0,0-.3,1.7,11.36,11.36,0,0,0,.15,1.74,8.34,8.34,0,0,0,2.24,4.07,3.52,3.52,0,0,0,.91.77,1.48,1.48,0,0,0,1.16.11,2,2,0,0,0,1-1.66,8.68,8.68,0,0,0-.38-4.29A5.73,5.73,0,0,0,203.81,47.88Z" transform="translate(-67.79 -1.69)" fill="#f7ad7e"></path><path d="M206.18,39s1.82,3.82,7.26,5,13.24-1.73,14.08-4S210.65,33.56,206.18,39Z" transform="translate(-67.79 -1.69)" fill="#68e1fd"></path><path d="M206.18,39s1.82,3.82,7.26,5,13.24-1.73,14.08-4S210.65,33.56,206.18,39Z" transform="translate(-67.79 -1.69)" fill="url(#linear-gradient-5)"></path><path d="M178,127.93s5-4.29-1.09-12.08-25.56-30.06-25.56-30.06l-4.1,8.36S163,120.71,167.72,129C170.86,134.5,178,127.93,178,127.93Z" transform="translate(-67.79 -1.69)" fill="#f7ad7e"></path><path d="M151.39,85.79l-4.1,8.36s-9.36-6.47-9.42-7.15-1.31-10.4,0-12.56c.44-.74,1.76-.48,3.35.21A28.18,28.18,0,0,1,144,76.09a38.21,38.21,0,0,1,5.21,3.66,11.33,11.33,0,0,1,1.59,3.68c.3,1,.52,1.89.6,2.22A1.31,1.31,0,0,1,151.39,85.79Z" transform="translate(-67.79 -1.69)" fill="#f7ad7e"></path><polygon points="188.65 127.13 172.17 150.02 172.14 162.32 200.17 133.81 188.65 127.13" fill="#f7ad7e"></polygon><path d="M243.67,80.89s8,3,10.72,9.74,25.35,37.2,21,42.45c-2.21,2.65-27.41,27.35-27.41,27.35l-8-8.71,16.72-26L245.56,110a15.54,15.54,0,0,1-2.78-10.34C243.33,93.65,244,84.49,243.67,80.89Z" transform="translate(-67.79 -1.69)" fill="#68e1fd"></path><path d="M243.67,80.89s8,3,10.72,9.74,25.35,37.2,21,42.45c-2.21,2.65-27.41,27.35-27.41,27.35l-8-8.71,16.72-26L245.56,110a15.54,15.54,0,0,1-2.78-10.34C243.33,93.65,244,84.49,243.67,80.89Z" transform="translate(-67.79 -1.69)" fill="url(#linear-gradient-6)"></path><path d="M263.93,122.46l-21.3,31.72-2.3-2.12.06-1,16.29-25.29-13.56-19.49L240.39,151l-.43.67.37.35-.37,6.11-1.21,10.77L187.86,166l-.35-3.47,25.88.52,10.6-2.43,11.28-13.55,4.17-48.28,3.88-7.24,0,2.3a15.42,15.42,0,0,1,.71-2.41Z" transform="translate(-67.79 -1.69)" fill="url(#linear-gradient-7)"></path><path d="M240,151.72a23.93,23.93,0,0,0-4.18-.87c-1.25,0-10.24,9.26-9.76,10.46s3,5.21,4.31,5.09,9.6-2.38,9.6-2.38S244.15,152.58,240,151.72Z" transform="translate(-67.79 -1.69)" fill="#f7ad7e"></path><polygon points="174.21 78.88 174.16 81.94 173.15 81.6 173.28 77.82 174.21 78.88" fill="#68e1fd"></polygon><polygon points="164.62 76.53 173.15 81.6 173.28 77.82 165.16 73.31 161.1 72.78 159.89 74.78 164.62 76.53" fill="#68e1fd"></polygon><polygon points="164.57 76.46 173.1 81.54 173.23 77.75 165.11 73.25 161.05 72.72 159.84 74.71 164.57 76.46" fill="url(#linear-gradient-8)"></polygon><path d="M229.59,43.38c.18,2.38.31,4.77.37,7.16a14.78,14.78,0,0,1,2.86-4.83.67.67,0,0,0,.2-.38.64.64,0,0,0-.11-.3,2.43,2.43,0,0,1-.29-1.21.49.49,0,0,0,.41,0,5.7,5.7,0,0,0-.48-2.15,2.49,2.49,0,0,0-.67-1,3,3,0,0,0-1-.45l-1.94-.62a.4.4,0,0,0-.37,0c-.07.06.67,1.44.73,1.67A10.25,10.25,0,0,1,229.59,43.38Z" transform="translate(-67.79 -1.69)" fill="#3f3d56"></path><path d="M202.07,37.86,202,40.27s15.39-4.8,30.58,1.2l.34-3.19S217.86,30.29,202.07,37.86Z" transform="translate(-67.79 -1.69)" fill="#68e1fd"></path><path d="M232.88,38.28l-.35,3.19q-1.12-.45-2.25-.81c-10.56-3.46-20.85-2.07-25.59-1.07-1.74.37-2.73.68-2.73.68l.11-2.41a33.66,33.66,0,0,1,5.55-2.07,36.52,36.52,0,0,1,19.92.44A31.17,31.17,0,0,1,232.88,38.28Z" transform="translate(-67.79 -1.69)" fill="url(#linear-gradient-9)"></path><path d="M231.1,47.65a2.06,2.06,0,0,1,2.72.44,2.94,2.94,0,0,1,.29,1.69,10.24,10.24,0,0,1-.14,1.75,8.42,8.42,0,0,1-2.24,4.07,3.52,3.52,0,0,1-.92.76,1.43,1.43,0,0,1-1.16.12,2,2,0,0,1-1-1.66,8.57,8.57,0,0,1,.38-4.29A5.62,5.62,0,0,1,231.1,47.65Z" transform="translate(-67.79 -1.69)" fill="#f7ad7e"></path><path d="M154.63,87l-6.48,10,1.62,3.71s3.65,7,9,17.13c1.75,3.31,4,14.15,13.2,15.87,3.7.69,11.46-10.89,8.92-14.59s-23.28-26.75-23.28-26.75Z" transform="translate(-67.79 -1.69)" fill="#68e1fd"></path><path d="M154.63,87l-6.48,10,1.62,3.71s3.65,7,9,17.13c1.75,3.31,4,14.15,13.2,15.87,3.7.69,11.46-10.89,8.92-14.59s-23.28-26.75-23.28-26.75Z" transform="translate(-67.79 -1.69)" fill="url(#linear-gradient-10)"></path><path d="M226,71.93l-5.29,11.91-4.78,8.08L221,90.53l4.87,3.39,3.12-20-1-2A1.15,1.15,0,0,0,226,71.93Z" transform="translate(-67.79 -1.69)" fill="#68e1fd"></path><path d="M209.86,71.86l-.3,1.23a17,17,0,0,0,2.62,13.72l3.76,5.34-8.51-4.31-4.75,2.54,2.9-14.82,1.33-4.22C207.32,70.46,209.46,71,209.86,71.86Z" transform="translate(-67.79 -1.69)" fill="#68e1fd"></path><path d="M226,71.93l-5.29,11.91-4.78,8.08L221,90.53l4.87,3.39,3.12-20-1-2A1.15,1.15,0,0,0,226,71.93Z" transform="translate(-67.79 -1.69)" fill="url(#linear-gradient-11)"></path><path d="M209.86,71.86l-.3,1.23a17,17,0,0,0,2.62,13.72l3.76,5.34-8.51-4.31-4.75,2.54,2.9-14.82,1.33-4.22C207.32,70.46,209.46,71,209.86,71.86Z" transform="translate(-67.79 -1.69)" fill="url(#linear-gradient-12)"></path><polygon points="119.73 75.49 119.38 78.85 120.54 78.62 120.88 74.45 119.73 75.49" fill="#68e1fd"></polygon><polygon points="130.55 74.16 120.54 78.62 120.88 74.45 130.38 70.57 134.89 70.51 135.96 72.86 130.55 74.16" fill="#68e1fd"></polygon><polygon points="130.38 74.19 120.36 78.65 120.71 74.48 130.2 70.6 134.72 70.54 135.79 72.89 130.38 74.19" fill="url(#linear-gradient-13)"></polygon><polygon points="146.12 89.44 139 156.83 142.3 168.12 146.82 168.29 143.52 156.83 149.94 89.44 146.12 89.44" fill="url(#linear-gradient-14)"></polygon><path d="M238.83,171.74l-11.89,1.68a30.06,30.06,0,0,1-5.69.25l-35.62-1.78.32-6.49,36.39,1.83a21.76,21.76,0,0,0,4.19-.2L240,165.12Z" transform="translate(-67.79 -1.69)" fill="#68e1fd"></path><polygon points="171.73 169.99 156.31 172.05 117.83 170.24 118.16 163.71 156.43 165.92 172.06 163.45 171.73 169.99" fill="url(#linear-gradient-15)"></polygon><rect x="205.79" y="164.99" width="10.9" height="10.9" rx="2.17" transform="translate(-53.58 -17.94) rotate(4.56)" fill="#fff"></rect><rect x="207.15" y="165.82" width="8.42" height="8.34" rx="1.67" transform="translate(-53.62 -17.95) rotate(4.56)" fill="#68e1fd"></rect><rect x="207.07" y="166.54" width="8.42" height="8.34" rx="1.67" transform="translate(-53.56 -17.94) rotate(4.56)" fill="url(#linear-gradient-16)"></rect><rect x="204.91" y="169.7" width="9.38" height="1.45" rx="0.72" transform="translate(-56.05 -15.19) rotate(3.79)" fill="#fff"></rect><polygon points="172.6 149.35 172.54 150.37 172.17 150.02 172.6 149.35" fill="url(#linear-gradient-17)"></polygon><polygon points="172.6 149.35 172.54 150.37 172.17 150.02 172.6 149.35" fill="url(#linear-gradient-17)"></polygon><polygon points="122.27 100.62 139.64 102.01 137.79 117.52 128.99 121.69 121.81 115.2 122.27 100.62" fill="url(#linear-gradient-19)"></polygon><polygon points="152.84 103.39 170.21 104.78 168.35 120.3 159.56 124.47 152.38 117.98 152.84 103.39" fill="url(#linear-gradient-20)"></polygon><path d="M229.12,94.05l-2.3,1a.62.62,0,0,0-.16.1c-.17.18,0,.46.1.68a4,4,0,0,1,0,2.47,7.47,7.47,0,0,0,.14,3.73,3.75,3.75,0,0,0,2.61,2.49,9.76,9.76,0,0,0,3.17-2.45A5.43,5.43,0,0,0,234,98.4a6.26,6.26,0,0,1,.87-.05c.29,0,.6-.25.57-.54s-.26-.37-.43-.53c-.61-.57-.56-1.61-1.15-2.22a2.7,2.7,0,0,0-1.45-.64C231.2,94.14,230.35,93.43,229.12,94.05Z" transform="translate(-67.79 -1.69)" fill="url(#linear-gradient-21)"></path><path d="M175.26,163l9,2.07a2.2,2.2,0,0,0,2.56-1.4l5.37-14.84a2.21,2.21,0,0,1,2.77-1.35l1.2.4a2.21,2.21,0,0,1,1.41,2.74l-19.87,64.85a2.2,2.2,0,0,1-3,1.37h0a2.2,2.2,0,0,1-1.26-2.57l10.73-41.82a2.21,2.21,0,0,0-1.65-2.7l-8.43-1.91a2.22,2.22,0,0,1-1.62-2.81l.17-.53A2.2,2.2,0,0,1,175.26,163Z" transform="translate(-67.79 -1.69)" fill="#68e1fd"></path><path d="M175.26,163l9,2.07a2.2,2.2,0,0,0,2.56-1.4l5.37-14.84a2.21,2.21,0,0,1,2.77-1.35l1.2.4a2.21,2.21,0,0,1,1.41,2.74l-19.87,64.85a2.2,2.2,0,0,1-3,1.37h0a2.2,2.2,0,0,1-1.26-2.57l10.73-41.82a2.21,2.21,0,0,0-1.65-2.7l-8.43-1.91a2.22,2.22,0,0,1-1.62-2.81l.17-.53A2.2,2.2,0,0,1,175.26,163Z" transform="translate(-67.79 -1.69)" fill="url(#linear-gradient-22)"></path><path d="M152.53,84a8.9,8.9,0,0,1-1.18,1.63c-.08-.33-.3-1.23-.6-2.22a4.18,4.18,0,0,0,.55-1.88,6.8,6.8,0,0,0-.74-3A7.27,7.27,0,0,0,148.9,76a3.33,3.33,0,0,0-2.81-.92,13.42,13.42,0,0,0-2.14,1,28.18,28.18,0,0,0-2.74-1.44.91.91,0,0,1,.13-.16A9.42,9.42,0,0,1,144.11,73a7.83,7.83,0,0,1,7.77,2.77A7.72,7.72,0,0,1,152.53,84Z" transform="translate(-67.79 -1.69)" fill="#68e1fd"></path><path d="M151.35,85.65a8.27,8.27,0,0,1-.71.74c-.9.88-2.77,3.23-4,3.4s-4.48-.09-4.35-4.88c0-1.07,4.48,1.25,6.29.49a4.52,4.52,0,0,0,2.19-2C151.05,84.42,151.27,85.32,151.35,85.65Z" transform="translate(-67.79 -1.69)" fill="#68e1fd"></path><path d="M151.35,85.65a8.27,8.27,0,0,1-.71.74c-.9.88-2.77,3.23-4,3.4s-4.48-.09-4.35-4.88c0-1.07,4.48,1.25,6.29.49a4.52,4.52,0,0,0,2.19-2C151.05,84.42,151.27,85.32,151.35,85.65Z" transform="translate(-67.79 -1.69)" fill="url(#linear-gradient-23)"></path><path d="M144.07,90.09a3.56,3.56,0,0,0-.33,1,1.2,1.2,0,0,0,.27,1,.25.25,0,0,0,.15.1.25.25,0,0,0,.12,0c.41,0,.66-.45.84-.82a12.21,12.21,0,0,0,.61-1.62,1.47,1.47,0,0,0,.05-1C145.22,87.36,144.25,89.7,144.07,90.09Z" transform="translate(-67.79 -1.69)" fill="#68e1fd"></path><path d="M143,93.48a3.29,3.29,0,0,0-.34,1,1.25,1.25,0,0,0,.27,1,.29.29,0,0,0,.16.1h.11c.41,0,.66-.46.84-.83a11.58,11.58,0,0,0,.61-1.61,1.54,1.54,0,0,0,.06-1C144.09,90.75,143.12,93.09,143,93.48Z" transform="translate(-67.79 -1.69)" fill="#68e1fd"></path><path d="M142.13,96.55a3.56,3.56,0,0,0-.33,1,1.21,1.21,0,0,0,.27,1,.4.4,0,0,0,.15.1.24.24,0,0,0,.12,0c.41,0,.66-.45.84-.82a11.24,11.24,0,0,0,.61-1.62,1.53,1.53,0,0,0,.06-1C143.28,93.82,142.31,96.16,142.13,96.55Z" transform="translate(-67.79 -1.69)" fill="#68e1fd"></path><path d="M141.56,100.51a3.76,3.76,0,0,0,0,1.06,1.2,1.2,0,0,0,.56.85.31.31,0,0,0,.18,0,.2.2,0,0,0,.11,0,1.21,1.21,0,0,0,.54-1,11.08,11.08,0,0,0,.08-1.73,1.53,1.53,0,0,0-.26-1C141.81,97.56,141.61,100.09,141.56,100.51Z" transform="translate(-67.79 -1.69)" fill="#68e1fd"></path><path d="M141.52,103.81a3.76,3.76,0,0,0,0,1.06,1.24,1.24,0,0,0,.57.85.27.27,0,0,0,.18,0,.23.23,0,0,0,.11,0,1.23,1.23,0,0,0,.54-1A11.08,11.08,0,0,0,143,103a1.59,1.59,0,0,0-.26-1C141.76,100.86,141.57,103.39,141.52,103.81Z" transform="translate(-67.79 -1.69)" fill="#68e1fd"></path><path d="M144,104.71a5.78,5.78,0,0,0-3.39.84c-.81.5-.21,2.33-.62,3.63-.62,1.93-2,3.58-2,5.1a7.08,7.08,0,1,0,9.09-6.79C146.44,107.3,144.74,104.71,144,104.71Zm1.2,15a5.26,5.26,0,1,1,5.26-5.26A5.26,5.26,0,0,1,145.24,119.66Z" transform="translate(-67.79 -1.69)" fill="#68e1fd"></path><path d="M144,104.71a5.78,5.78,0,0,0-3.39.84c-.81.5-.21,2.33-.62,3.63-.62,1.93-2,3.58-2,5.1a7.08,7.08,0,1,0,9.09-6.79C146.44,107.3,144.74,104.71,144,104.71Zm1.2,15a5.26,5.26,0,1,1,5.26-5.26A5.26,5.26,0,0,1,145.24,119.66Z" transform="translate(-67.79 -1.69)" fill="url(#linear-gradient-24)"></path><path d="M235,312.44c-.41,4.51.75,9,1.89,13.39a6.48,6.48,0,0,0,1,2.46,5.79,5.79,0,0,0,2,1.45,40.32,40.32,0,0,0,15.94,4.61,9.27,9.27,0,0,0,3-.14c3.24-.81,5-4.67,4.37-7.94s-3.23-5.88-6.13-7.53c-1.37-.79-2.84-1.41-4.15-2.29a12.07,12.07,0,0,1-3.47-3.61c-.68-1.09-1.11-3.83-2.31-4.25s-4.47,1.53-5.68,1.94Q238.29,311.61,235,312.44Z" transform="translate(-67.79 -1.69)" fill="#3f3d56"></path><path d="M201.71,312c1.47,4.29,1.41,8.92,1.34,13.46a6.66,6.66,0,0,1-.41,2.63,6,6,0,0,1-1.56,1.87,40.51,40.51,0,0,1-14.4,8.27,9.43,9.43,0,0,1-3,.58c-3.34,0-6-3.35-6.14-6.68s1.75-6.48,4.17-8.77c1.15-1.09,2.43-2,3.5-3.21a12.24,12.24,0,0,0,2.51-4.33c.4-1.22.16-4,1.23-4.68s4.71.43,6,.54Q198.33,312,201.71,312Z" transform="translate(-67.79 -1.69)" fill="#3f3d56"></path><path d="M235,312.44c-.41,4.51.75,9,1.89,13.39a6.48,6.48,0,0,0,1,2.46,5.79,5.79,0,0,0,2,1.45,40.32,40.32,0,0,0,15.94,4.61,9.27,9.27,0,0,0,3-.14c3.24-.81,5-4.67,4.37-7.94s-3.23-5.88-6.13-7.53c-1.37-.79-2.84-1.41-4.15-2.29a12.07,12.07,0,0,1-3.47-3.61c-.68-1.09-1.11-3.83-2.31-4.25s-4.47,1.53-5.68,1.94Q238.29,311.61,235,312.44Z" transform="translate(-67.79 -1.69)" fill="url(#linear-gradient-25)"></path><path d="M201.71,312c1.47,4.29,1.41,8.92,1.34,13.46a6.66,6.66,0,0,1-.41,2.63,6,6,0,0,1-1.56,1.87,40.51,40.51,0,0,1-14.4,8.27,9.43,9.43,0,0,1-3,.58c-3.34,0-6-3.35-6.14-6.68s1.75-6.48,4.17-8.77c1.15-1.09,2.43-2,3.5-3.21a12.24,12.24,0,0,0,2.51-4.33c.4-1.22.16-4,1.23-4.68s4.71.43,6,.54Q198.33,312,201.71,312Z" transform="translate(-67.79 -1.69)" fill="url(#linear-gradient-26)"></path><path d="M123.71,327.15C126,340.22,142,345,155.22,346.5a486.93,486.93,0,0,0,78.43,2.67c24.13-1.13,48.57-4.16,70.72-13.8,16.06-7,31.82-19.2,34.81-36.47,1.72-9.94-1.06-20.1-.66-30.18.5-12.85,6.11-24.86,10.12-37.08,20.8-63.46-6-139.33-62-175.68C259,38,233.68,3.81,200.72,1.81,180.06.56,159.38,9.46,144.68,24S121,58.45,117.88,78.91c-3.1,20.12-.93,41-6.22,60.66C105.5,162.43,89.53,182.41,87.29,206c-1.71,18,4.89,35.73,11.39,52.66C106.81,279.83,119.85,304.79,123.71,327.15Z" transform="translate(-67.79 -1.69)" fill="none"></path></svg>