<?xml version="1.0" standalone="no"?>
<!DOCTYPE svg PUBLIC "-//W3C//DTD SVG 20010904//EN"
 "http://www.w3.org/TR/2001/REC-SVG-20010904/DTD/svg10.dtd">
<svg version="1.0" xmlns="http://www.w3.org/2000/svg"
 width="1230.000000pt" height="1280.000000pt" viewBox="0 0 1230.000000 1280.000000"
 preserveAspectRatio="xMidYMid meet">
<metadata>
Created by potrace 1.15, written by Peter Selinger 2001-2017
</metadata>
<g transform="translate(0.000000,1280.000000) scale(0.100000,-0.100000)"
fill="#000000" stroke="none">
<path d="M5968 12693 c-187 -267 -418 -460 -732 -613 -686 -335 -1572 -342
-2356 -20 -274 113 -491 238 -791 457 -101 73 -187 133 -190 133 -4 0 -432
-668 -953 -1484 l-946 -1485 0 -82 0 -82 138 -136 c153 -150 231 -243 326
-385 322 -482 407 -1047 265 -1776 -47 -245 -134 -558 -282 -1015 -36 -110
-81 -249 -101 -310 -151 -472 -217 -816 -202 -1044 19 -275 118 -796 221
-1161 91 -321 180 -556 310 -818 413 -830 1021 -1300 1938 -1497 266 -57 540
-93 1122 -145 369 -33 525 -51 710 -81 785 -128 1226 -411 1557 -1000 l83
-148 145 0 145 -1 34 83 c139 336 289 523 546 685 132 82 357 172 570 227 250
64 433 95 1065 180 569 76 794 115 1090 187 1186 288 1903 945 2290 2097 96
286 166 598 226 999 21 139 27 216 27 357 1 330 -52 619 -228 1228 -41 141
-109 373 -150 515 -183 634 -243 951 -252 1341 -8 317 17 503 96 741 95 282
246 517 488 756 l123 120 0 83 0 82 -902 1402 c-496 771 -917 1425 -936 1454
l-34 51 -132 -146 c-170 -189 -256 -267 -385 -354 -367 -245 -874 -378 -1441
-378 -884 1 -1712 329 -2015 800 -24 36 -64 116 -90 178 l-48 112 -137 0 -136
0 -76 -107z"/>
</g>
</svg>
